<svg width="600" height="720" viewBox="0 0 600 720" fill="none" xmlns="http://www.w3.org/2000/svg">
<rect x="360" y="600" width="120" height="120" fill="white"/>
<path d="M120 59.9998C114.537 54.5371 107.955 50.8765 100.992 49.0161C106.092 43.9233 109.962 37.4623 111.962 30.0001C104.499 28.0006 96.9689 28.1215 90.0085 29.9915C91.8785 23.0311 91.9994 15.5007 89.9999 8.03843C82.5377 10.0379 76.0764 13.9078 70.9839 19.0078C69.1231 12.045 65.4629 5.46275 59.9998 0C54.5371 5.46275 50.8765 12.0446 49.0161 19.0078C43.9233 13.9078 37.4623 10.0379 30.0001 8.03843C28.0006 15.5007 28.1215 23.0311 29.9915 29.9915C23.0311 28.1215 15.5007 28.0006 8.03843 30.0001C10.0379 37.4623 13.9078 43.9236 19.0078 49.0161C12.045 50.8765 5.46275 54.5371 0 59.9998C5.46275 65.4626 12.0446 69.1231 19.0078 70.9839C13.9078 76.0767 10.0379 82.5377 8.03843 89.9999C15.5007 91.9994 23.0311 91.8785 29.9915 90.0085C28.1215 96.9689 28.0006 104.499 30.0001 111.962C37.4623 109.962 43.9236 106.092 49.0161 100.992C50.8765 107.955 54.5371 114.537 59.9998 120C65.4626 114.537 69.1231 107.955 70.9836 100.992C76.0764 106.092 82.5373 109.962 89.9996 111.962C91.9991 104.499 91.8781 96.9689 90.0078 90.0085C96.9682 91.8788 104.499 91.9994 111.961 89.9999C109.961 82.5377 106.092 76.0764 100.992 70.9839C107.954 69.1235 114.537 65.4626 120 59.9998Z" fill="#FF6E3C"/>
<path d="M600 660C594.537 654.537 587.955 650.877 580.992 649.016C586.092 643.923 589.962 637.462 591.962 630C584.499 628.001 576.969 628.122 570.008 629.992C571.878 623.031 571.999 615.501 570 608.038C562.538 610.038 556.076 613.908 550.984 619.008C549.123 612.045 545.463 605.463 540 600C534.537 605.463 530.877 612.045 529.016 619.008C523.923 613.908 517.462 610.038 510 608.038C508.001 615.501 508.122 623.031 509.992 629.992C503.031 628.122 495.501 628.001 488.038 630C490.038 637.462 493.908 643.924 499.008 649.016C492.045 650.877 485.463 654.537 480 660C485.463 665.463 492.045 669.123 499.008 670.984C493.908 676.077 490.038 682.538 488.038 690C495.501 691.999 503.031 691.878 509.992 690.008C508.122 696.969 508.001 704.499 510 711.962C517.462 709.962 523.924 706.092 529.016 700.992C530.877 707.955 534.537 714.537 540 720C545.463 714.537 549.123 707.955 550.984 700.992C556.076 706.092 562.537 709.962 570 711.962C571.999 704.499 571.878 696.969 570.008 690.008C576.968 691.879 584.499 691.999 591.961 690C589.961 682.538 586.092 676.076 580.992 670.984C587.954 669.123 594.537 665.463 600 660Z" fill="#FF6E3C"/>
<rect x="240" y="600" width="120" height="120" fill="white"/>
<rect x="120" width="120" height="120" fill="#4187F5"/>
<rect x="480" width="120" height="120" fill="#4187F5"/>
<path d="M120 120V240H240V120H120ZM180.169 211.455C162.891 211.455 148.884 197.448 148.884 180.169C148.884 162.891 162.891 148.884 180.169 148.884C197.448 148.884 211.455 162.891 211.455 180.169C211.455 197.448 197.448 211.455 180.169 211.455Z" fill="#228D57"/>
<rect x="120" y="240" width="120" height="120" fill="#4187F5"/>
<rect x="480" y="120" width="120" height="120" fill="#FF6E3C"/>
<g clip-path="url(#clip0_106_69)">
<rect width="120" height="240" transform="translate(0 240)" fill="white"/>
<path d="M120 300C86.9832 300 60 273.184 60 240L120 240L120 300Z" fill="#228D57"/>
<path d="M60 480C60 446.983 86.8156 420 120 420L120 480L60 480Z" fill="#228D57"/>
</g>
<rect x="120" y="360" width="120" height="120" fill="#4187F5"/>
<g clip-path="url(#clip1_106_69)">
<rect width="240" height="240" transform="translate(240 240)" fill="white"/>
<path d="M360 240C360 272.866 330.966 300 298.667 300H240V240H360Z" fill="#228D57"/>
<path d="M360 300C360 332.866 330.966 360 298.667 360H240V300H360Z" fill="#228D57"/>
<rect x="240" y="240" width="60" height="60" fill="#FF6E3C"/>
<path d="M360 240C360 306.034 413.966 360 480 360V240H360Z" fill="#FF6E3C"/>
<path d="M360 360C426.034 360 480 413.631 480 480H360V360Z" fill="#228D57"/>
</g>
<path d="M480 720C413.966 720 360 666.369 360 600H480V720Z" fill="#4187F5"/>
<path d="M360 600C360 632.866 330.966 660 298.667 660H240V600H360Z" fill="#228D57"/>
<path d="M360 660C360 692.866 330.966 720 298.667 720H240V660H360Z" fill="#228D57"/>
<rect x="240" y="600" width="60" height="60" fill="#FF6E3C"/>
<path d="M480 240V360H600V240H480ZM540.169 331.455C522.891 331.455 508.884 317.448 508.884 300.169C508.884 282.891 522.891 268.884 540.169 268.884C557.448 268.884 571.455 282.891 571.455 300.169C571.455 317.448 557.448 331.455 540.169 331.455Z" fill="#228D57"/>
<path d="M120 480V600H240V480H120ZM180.169 571.455C162.891 571.455 148.884 557.448 148.884 540.169C148.884 522.891 162.891 508.884 180.169 508.884C197.448 508.884 211.455 522.891 211.455 540.169C211.455 557.448 197.448 571.455 180.169 571.455Z" fill="#228D57"/>
<path d="M0 600V720H120V600H0ZM60.1695 691.455C42.8912 691.455 28.8844 677.448 28.8844 660.169C28.8844 642.891 42.8912 628.884 60.1695 628.884C77.4478 628.884 91.4546 642.891 91.4546 660.169C91.4546 677.448 77.4478 691.455 60.1695 691.455Z" fill="#228D57"/>
<rect x="480" y="360" width="120" height="120" fill="#4187F5"/>
<rect x="480" y="480" width="120" height="120" fill="#228D57"/>
<rect x="360" y="480" width="120" height="120" fill="white"/>
<rect x="240" y="480" width="120" height="120" fill="#4187F5"/>
<rect y="480" width="120" height="120" fill="#4187F5"/>
<rect x="120" y="600" width="120" height="120" fill="#4187F5"/>
<rect y="120" width="120" height="120" fill="#4187F5"/>
<g clip-path="url(#clip2_106_69)">
<rect width="240" height="240" transform="translate(240)" fill="white"/>
<path d="M360 0C360 32.866 330.966 60 298.667 60H240V0H360Z" fill="#228D57"/>
<path d="M360 0C426.034 0 480 53.6313 480 120H360V0Z" fill="#228D57"/>
<rect x="240" y="120" width="120" height="120" fill="#4187F5"/>
</g>
<defs>
<clipPath id="clip0_106_69">
<rect width="120" height="240" fill="white" transform="translate(0 240)"/>
</clipPath>
<clipPath id="clip1_106_69">
<rect width="240" height="240" fill="white" transform="translate(240 240)"/>
</clipPath>
<clipPath id="clip2_106_69">
<rect width="240" height="240" fill="white" transform="translate(240)"/>
</clipPath>
</defs>
</svg>
